<?xml version="1.0" encoding="UTF-8" standalone="no"?><svg xmlns:svg="http://www.w3.org/2000/svg" xmlns="http://www.w3.org/2000/svg" xmlns:xlink="http://www.w3.org/1999/xlink" version="1.0" width="64px" height="64px" viewBox="0 0 128 128" xml:space="preserve"><g><path d="M97.63 8.23a7.38 7.38 0 0 1 2.7 10.07L89.2 37.57a7.38 7.38 0 1 1-12.77-7.37l11.12-19.27a7.38 7.38 0 0 1 10.08-2.7z" fill="#afafaf"/><path d="M97.63 8.23a7.38 7.38 0 0 1 2.7 10.07L89.2 37.57a7.38 7.38 0 1 1-12.77-7.37l11.12-19.27a7.38 7.38 0 0 1 10.08-2.7z" fill="#f7f7f7" transform="rotate(30 64 64)"/><path d="M97.63 8.23a7.38 7.38 0 0 1 2.7 10.07L89.2 37.57a7.38 7.38 0 1 1-12.77-7.37l11.12-19.27a7.38 7.38 0 0 1 10.08-2.7z" fill="#f7f7f7" transform="rotate(60 64 64)"/><path d="M97.63 8.23a7.38 7.38 0 0 1 2.7 10.07L89.2 37.57a7.38 7.38 0 1 1-12.77-7.37l11.12-19.27a7.38 7.38 0 0 1 10.08-2.7z" fill="#f7f7f7" transform="rotate(90 64 64)"/><path d="M97.63 8.23a7.38 7.38 0 0 1 2.7 10.07L89.2 37.57a7.38 7.38 0 1 1-12.77-7.37l11.12-19.27a7.38 7.38 0 0 1 10.08-2.7z" fill="#f0f0f0" transform="rotate(120 64 64)"/><path d="M97.63 8.23a7.38 7.38 0 0 1 2.7 10.07L89.2 37.57a7.38 7.38 0 1 1-12.77-7.37l11.12-19.27a7.38 7.38 0 0 1 10.08-2.7z" fill="#e8e8e8" transform="rotate(150 64 64)"/><path d="M97.63 8.23a7.38 7.38 0 0 1 2.7 10.07L89.2 37.57a7.38 7.38 0 1 1-12.77-7.37l11.12-19.27a7.38 7.38 0 0 1 10.08-2.7z" fill="#e1e1e1" transform="rotate(180 64 64)"/><path d="M97.63 8.23a7.38 7.38 0 0 1 2.7 10.07L89.2 37.57a7.38 7.38 0 1 1-12.77-7.37l11.12-19.27a7.38 7.38 0 0 1 10.08-2.7z" fill="#dadada" transform="rotate(210 64 64)"/><path d="M97.63 8.23a7.38 7.38 0 0 1 2.7 10.07L89.2 37.57a7.38 7.38 0 1 1-12.77-7.37l11.12-19.27a7.38 7.38 0 0 1 10.08-2.7z" fill="#d3d3d3" transform="rotate(240 64 64)"/><path d="M97.63 8.23a7.38 7.38 0 0 1 2.7 10.07L89.2 37.57a7.38 7.38 0 1 1-12.77-7.37l11.12-19.27a7.38 7.38 0 0 1 10.08-2.7z" fill="#cccccc" transform="rotate(270 64 64)"/><path d="M97.63 8.23a7.38 7.38 0 0 1 2.7 10.07L89.2 37.57a7.38 7.38 0 1 1-12.77-7.37l11.12-19.27a7.38 7.38 0 0 1 10.08-2.7z" fill="#c4c4c4" transform="rotate(300 64 64)"/><path d="M97.63 8.23a7.38 7.38 0 0 1 2.7 10.07L89.2 37.57a7.38 7.38 0 1 1-12.77-7.37l11.12-19.27a7.38 7.38 0 0 1 10.08-2.7z" fill="#bdbdbd" transform="rotate(330 64 64)"/><animateTransform attributeName="transform" type="rotate" values="0 64 64;30 64 64;60 64 64;90 64 64;120 64 64;150 64 64;180 64 64;210 64 64;240 64 64;270 64 64;300 64 64;330 64 64" calcMode="discrete" dur="840ms" repeatCount="indefinite"></animateTransform></g></svg>